<mxfile host="Electron" agent="Mozilla/5.0 (Macintosh; Intel Mac OS X 10_15_7) AppleWebKit/537.36 (KHTML, like Gecko) draw.io/26.0.9 Chrome/128.0.6613.186 Electron/32.2.5 Safari/537.36" version="26.0.9">
  <diagram id="C5RBs43oDa-KdzZeNtuy" name="Page-1">
    <mxGraphModel dx="2657" dy="4628" grid="1" gridSize="10" guides="1" tooltips="1" connect="1" arrows="1" fold="1" page="1" pageScale="1" pageWidth="827" pageHeight="1169" math="0" shadow="0">
      <root>
        <mxCell id="WIyWlLk6GJQsqaUBKTNV-0" />
        <mxCell id="WIyWlLk6GJQsqaUBKTNV-1" parent="WIyWlLk6GJQsqaUBKTNV-0" />
        <mxCell id="-z4j6azdkSDf-nEMbMTn-118" style="edgeStyle=orthogonalEdgeStyle;rounded=0;orthogonalLoop=1;jettySize=auto;html=1;" edge="1" parent="WIyWlLk6GJQsqaUBKTNV-1" source="-z4j6azdkSDf-nEMbMTn-3" target="-z4j6azdkSDf-nEMbMTn-117">
          <mxGeometry relative="1" as="geometry" />
        </mxCell>
        <mxCell id="-z4j6azdkSDf-nEMbMTn-3" value=" 1차 필터링 영상 수집" style="swimlane;" vertex="1" parent="WIyWlLk6GJQsqaUBKTNV-1">
          <mxGeometry x="-730" y="-2080" width="1470" height="1360" as="geometry" />
        </mxCell>
        <mxCell id="-z4j6azdkSDf-nEMbMTn-37" style="edgeStyle=orthogonalEdgeStyle;rounded=0;orthogonalLoop=1;jettySize=auto;html=1;entryX=0.5;entryY=0;entryDx=0;entryDy=0;" edge="1" parent="-z4j6azdkSDf-nEMbMTn-3" source="-z4j6azdkSDf-nEMbMTn-7" target="-z4j6azdkSDf-nEMbMTn-35">
          <mxGeometry relative="1" as="geometry" />
        </mxCell>
        <mxCell id="-z4j6azdkSDf-nEMbMTn-7" value="ios 기기의 화면 녹화 실행&lt;div&gt;30초&lt;/div&gt;" style="rounded=0;whiteSpace=wrap;html=1;" vertex="1" parent="-z4j6azdkSDf-nEMbMTn-3">
          <mxGeometry x="60" y="300" width="170" height="60" as="geometry" />
        </mxCell>
        <mxCell id="-z4j6azdkSDf-nEMbMTn-10" value="스토어 id가 반환 되었는가?" style="rhombus;whiteSpace=wrap;html=1;" vertex="1" parent="-z4j6azdkSDf-nEMbMTn-3">
          <mxGeometry x="60" y="660" width="170" height="80" as="geometry" />
        </mxCell>
        <mxCell id="-z4j6azdkSDf-nEMbMTn-16" value="파일명,게임이름 반환" style="rounded=0;whiteSpace=wrap;html=1;" vertex="1" parent="-z4j6azdkSDf-nEMbMTn-3">
          <mxGeometry x="60" y="950" width="170" height="60" as="geometry" />
        </mxCell>
        <mxCell id="-z4j6azdkSDf-nEMbMTn-14" value="지정된 위치에 녹화영상 저장" style="rounded=0;whiteSpace=wrap;html=1;" vertex="1" parent="-z4j6azdkSDf-nEMbMTn-3">
          <mxGeometry x="60" y="810" width="170" height="60" as="geometry" />
        </mxCell>
        <mxCell id="-z4j6azdkSDf-nEMbMTn-13" value="YES" style="edgeStyle=orthogonalEdgeStyle;rounded=0;orthogonalLoop=1;jettySize=auto;html=1;" edge="1" parent="-z4j6azdkSDf-nEMbMTn-3" source="-z4j6azdkSDf-nEMbMTn-10" target="-z4j6azdkSDf-nEMbMTn-14">
          <mxGeometry relative="1" as="geometry">
            <mxPoint x="145" y="600" as="targetPoint" />
          </mxGeometry>
        </mxCell>
        <mxCell id="-z4j6azdkSDf-nEMbMTn-15" style="edgeStyle=orthogonalEdgeStyle;rounded=0;orthogonalLoop=1;jettySize=auto;html=1;" edge="1" parent="-z4j6azdkSDf-nEMbMTn-3" source="-z4j6azdkSDf-nEMbMTn-14" target="-z4j6azdkSDf-nEMbMTn-16">
          <mxGeometry relative="1" as="geometry">
            <mxPoint x="145" y="670" as="targetPoint" />
          </mxGeometry>
        </mxCell>
        <mxCell id="-z4j6azdkSDf-nEMbMTn-91" style="edgeStyle=orthogonalEdgeStyle;rounded=0;orthogonalLoop=1;jettySize=auto;html=1;entryX=0.5;entryY=0;entryDx=0;entryDy=0;" edge="1" parent="-z4j6azdkSDf-nEMbMTn-3" source="-z4j6azdkSDf-nEMbMTn-35" target="-z4j6azdkSDf-nEMbMTn-90">
          <mxGeometry relative="1" as="geometry" />
        </mxCell>
        <mxCell id="-z4j6azdkSDf-nEMbMTn-35" value="&lt;span style=&quot;font-weight: 700;&quot;&gt;허위 또문 부적절한 게임&lt;/span&gt;&lt;div&gt;&lt;span style=&quot;font-weight: 700;&quot;&gt;&amp;nbsp;1차 필터링&lt;/span&gt;&lt;/div&gt;" style="shape=process;whiteSpace=wrap;html=1;backgroundOutline=1;" vertex="1" parent="-z4j6azdkSDf-nEMbMTn-3">
          <mxGeometry x="60" y="410" width="170" height="70" as="geometry" />
        </mxCell>
        <mxCell id="-z4j6azdkSDf-nEMbMTn-5" value="광고 실행 로그 감지" style="rounded=0;whiteSpace=wrap;html=1;" vertex="1" parent="-z4j6azdkSDf-nEMbMTn-3">
          <mxGeometry x="60" y="200" width="170" height="60" as="geometry" />
        </mxCell>
        <mxCell id="-z4j6azdkSDf-nEMbMTn-6" style="edgeStyle=orthogonalEdgeStyle;rounded=0;orthogonalLoop=1;jettySize=auto;html=1;" edge="1" parent="-z4j6azdkSDf-nEMbMTn-3" source="-z4j6azdkSDf-nEMbMTn-5" target="-z4j6azdkSDf-nEMbMTn-7">
          <mxGeometry relative="1" as="geometry">
            <mxPoint x="145" y="310" as="targetPoint" />
          </mxGeometry>
        </mxCell>
        <mxCell id="-z4j6azdkSDf-nEMbMTn-94" value="YES" style="edgeStyle=orthogonalEdgeStyle;rounded=0;orthogonalLoop=1;jettySize=auto;html=1;entryX=0.5;entryY=0;entryDx=0;entryDy=0;" edge="1" parent="-z4j6azdkSDf-nEMbMTn-3" source="-z4j6azdkSDf-nEMbMTn-90" target="-z4j6azdkSDf-nEMbMTn-10">
          <mxGeometry relative="1" as="geometry" />
        </mxCell>
        <mxCell id="-z4j6azdkSDf-nEMbMTn-90" value="프로세스 종료 메세지&lt;div&gt;전달되지않았는가?&lt;/div&gt;" style="rhombus;whiteSpace=wrap;html=1;" vertex="1" parent="-z4j6azdkSDf-nEMbMTn-3">
          <mxGeometry x="60" y="530" width="170" height="80" as="geometry" />
        </mxCell>
        <mxCell id="-z4j6azdkSDf-nEMbMTn-92" style="edgeStyle=orthogonalEdgeStyle;rounded=0;orthogonalLoop=1;jettySize=auto;html=1;entryX=1;entryY=0.5;entryDx=0;entryDy=0;exitX=1;exitY=0.5;exitDx=0;exitDy=0;" edge="1" parent="-z4j6azdkSDf-nEMbMTn-3" source="-z4j6azdkSDf-nEMbMTn-90" target="-z4j6azdkSDf-nEMbMTn-5">
          <mxGeometry relative="1" as="geometry">
            <mxPoint x="325" y="280" as="targetPoint" />
            <mxPoint x="354.9969230769233" y="589.9561990950227" as="sourcePoint" />
            <Array as="points">
              <mxPoint x="325" y="570" />
              <mxPoint x="325" y="230" />
            </Array>
          </mxGeometry>
        </mxCell>
        <mxCell id="-z4j6azdkSDf-nEMbMTn-97" value="NO" style="edgeLabel;html=1;align=center;verticalAlign=middle;resizable=0;points=[];" vertex="1" connectable="0" parent="-z4j6azdkSDf-nEMbMTn-92">
          <mxGeometry x="-0.9035" y="2" relative="1" as="geometry">
            <mxPoint x="17" as="offset" />
          </mxGeometry>
        </mxCell>
        <mxCell id="-z4j6azdkSDf-nEMbMTn-96" value="에러 메세지" style="rounded=0;whiteSpace=wrap;html=1;" vertex="1" parent="-z4j6azdkSDf-nEMbMTn-3">
          <mxGeometry x="315" y="670" width="120" height="60" as="geometry" />
        </mxCell>
        <mxCell id="-z4j6azdkSDf-nEMbMTn-95" value="NO" style="edgeStyle=orthogonalEdgeStyle;rounded=0;orthogonalLoop=1;jettySize=auto;html=1;" edge="1" parent="-z4j6azdkSDf-nEMbMTn-3" source="-z4j6azdkSDf-nEMbMTn-10" target="-z4j6azdkSDf-nEMbMTn-96">
          <mxGeometry relative="1" as="geometry">
            <mxPoint x="325" y="700" as="targetPoint" />
          </mxGeometry>
        </mxCell>
        <mxCell id="-z4j6azdkSDf-nEMbMTn-65" value="허위 또문 부적절한 게임 1차 필터링" style="swimlane;whiteSpace=wrap;html=1;" vertex="1" parent="-z4j6azdkSDf-nEMbMTn-3">
          <mxGeometry x="500" y="130" width="880" height="1170" as="geometry" />
        </mxCell>
        <mxCell id="-z4j6azdkSDf-nEMbMTn-71" value="허위,사기,과장 등의 조건 키워드&lt;div&gt;리뷰목록 필터링&lt;/div&gt;" style="rounded=0;whiteSpace=wrap;html=1;" vertex="1" parent="-z4j6azdkSDf-nEMbMTn-65">
          <mxGeometry x="105" y="710" width="170" height="60" as="geometry" />
        </mxCell>
        <mxCell id="-z4j6azdkSDf-nEMbMTn-81" style="edgeStyle=orthogonalEdgeStyle;rounded=0;orthogonalLoop=1;jettySize=auto;html=1;entryX=0;entryY=0.5;entryDx=0;entryDy=0;" edge="1" parent="-z4j6azdkSDf-nEMbMTn-65" source="-z4j6azdkSDf-nEMbMTn-74" target="-z4j6azdkSDf-nEMbMTn-77">
          <mxGeometry relative="1" as="geometry" />
        </mxCell>
        <mxCell id="-z4j6azdkSDf-nEMbMTn-82" value="NO" style="edgeLabel;html=1;align=center;verticalAlign=middle;resizable=0;points=[];" vertex="1" connectable="0" parent="-z4j6azdkSDf-nEMbMTn-81">
          <mxGeometry x="-0.0471" y="-2" relative="1" as="geometry">
            <mxPoint as="offset" />
          </mxGeometry>
        </mxCell>
        <mxCell id="-z4j6azdkSDf-nEMbMTn-74" value="해당 리뷰가 존재하는가?" style="rhombus;whiteSpace=wrap;html=1;" vertex="1" parent="-z4j6azdkSDf-nEMbMTn-65">
          <mxGeometry x="100" y="830" width="180" height="100" as="geometry" />
        </mxCell>
        <mxCell id="-z4j6azdkSDf-nEMbMTn-72" style="edgeStyle=orthogonalEdgeStyle;rounded=0;orthogonalLoop=1;jettySize=auto;html=1;" edge="1" parent="-z4j6azdkSDf-nEMbMTn-65" source="-z4j6azdkSDf-nEMbMTn-71" target="-z4j6azdkSDf-nEMbMTn-74">
          <mxGeometry relative="1" as="geometry">
            <mxPoint x="-515" y="570" as="targetPoint" />
          </mxGeometry>
        </mxCell>
        <mxCell id="-z4j6azdkSDf-nEMbMTn-77" value="정상적 게임으로 판단&amp;nbsp;&lt;div&gt;process 종료 메세지 반환&lt;/div&gt;" style="rounded=0;whiteSpace=wrap;html=1;" vertex="1" parent="-z4j6azdkSDf-nEMbMTn-65">
          <mxGeometry x="341" y="850" width="170" height="60" as="geometry" />
        </mxCell>
        <mxCell id="-z4j6azdkSDf-nEMbMTn-84" value="&lt;div&gt;의심후보군 게임이름&lt;span style=&quot;background-color: transparent; color: light-dark(rgb(0, 0, 0), rgb(255, 255, 255));&quot;&gt;&amp;nbsp;반환&lt;/span&gt;&lt;/div&gt;" style="rounded=0;whiteSpace=wrap;html=1;" vertex="1" parent="-z4j6azdkSDf-nEMbMTn-65">
          <mxGeometry x="105" y="995" width="170" height="60" as="geometry" />
        </mxCell>
        <mxCell id="-z4j6azdkSDf-nEMbMTn-83" style="edgeStyle=orthogonalEdgeStyle;rounded=0;orthogonalLoop=1;jettySize=auto;html=1;" edge="1" parent="-z4j6azdkSDf-nEMbMTn-65" source="-z4j6azdkSDf-nEMbMTn-74" target="-z4j6azdkSDf-nEMbMTn-84">
          <mxGeometry relative="1" as="geometry">
            <mxPoint x="-525" y="790" as="targetPoint" />
          </mxGeometry>
        </mxCell>
        <mxCell id="-z4j6azdkSDf-nEMbMTn-85" value="yes" style="edgeLabel;html=1;align=center;verticalAlign=middle;resizable=0;points=[];" vertex="1" connectable="0" parent="-z4j6azdkSDf-nEMbMTn-83">
          <mxGeometry x="-0.2577" y="4" relative="1" as="geometry">
            <mxPoint as="offset" />
          </mxGeometry>
        </mxCell>
        <mxCell id="-z4j6azdkSDf-nEMbMTn-26" value="스토어 url 로그 감지" style="rounded=0;whiteSpace=wrap;html=1;" vertex="1" parent="-z4j6azdkSDf-nEMbMTn-65">
          <mxGeometry x="100" y="75" width="180" height="60" as="geometry" />
        </mxCell>
        <mxCell id="-z4j6azdkSDf-nEMbMTn-29" value="스토어 id 추출" style="rounded=0;whiteSpace=wrap;html=1;" vertex="1" parent="-z4j6azdkSDf-nEMbMTn-65">
          <mxGeometry x="105" y="185" width="170" height="60" as="geometry" />
        </mxCell>
        <mxCell id="-z4j6azdkSDf-nEMbMTn-28" style="edgeStyle=orthogonalEdgeStyle;rounded=0;orthogonalLoop=1;jettySize=auto;html=1;" edge="1" parent="-z4j6azdkSDf-nEMbMTn-65" source="-z4j6azdkSDf-nEMbMTn-26" target="-z4j6azdkSDf-nEMbMTn-29">
          <mxGeometry relative="1" as="geometry">
            <mxPoint x="190" y="195" as="targetPoint" />
          </mxGeometry>
        </mxCell>
        <mxCell id="-z4j6azdkSDf-nEMbMTn-41" style="edgeStyle=orthogonalEdgeStyle;rounded=0;orthogonalLoop=1;jettySize=auto;html=1;entryX=1;entryY=0.5;entryDx=0;entryDy=0;exitX=1;exitY=0.5;exitDx=0;exitDy=0;" edge="1" parent="-z4j6azdkSDf-nEMbMTn-65" source="-z4j6azdkSDf-nEMbMTn-40" target="-z4j6azdkSDf-nEMbMTn-26">
          <mxGeometry relative="1" as="geometry">
            <mxPoint x="295" y="335.0000000000002" as="sourcePoint" />
            <mxPoint x="302.5" y="100" as="targetPoint" />
            <Array as="points">
              <mxPoint x="365" y="340" />
              <mxPoint x="365" y="105" />
            </Array>
          </mxGeometry>
        </mxCell>
        <mxCell id="-z4j6azdkSDf-nEMbMTn-51" value="yes" style="edgeLabel;html=1;align=center;verticalAlign=middle;resizable=0;points=[];" vertex="1" connectable="0" parent="-z4j6azdkSDf-nEMbMTn-41">
          <mxGeometry x="-0.864" relative="1" as="geometry">
            <mxPoint as="offset" />
          </mxGeometry>
        </mxCell>
        <mxCell id="-z4j6azdkSDf-nEMbMTn-40" value="DB에 동일한 id가&amp;nbsp;&lt;div&gt;존재하는가?&lt;/div&gt;" style="rhombus;whiteSpace=wrap;html=1;" vertex="1" parent="-z4j6azdkSDf-nEMbMTn-65">
          <mxGeometry x="107.5" y="300" width="165" height="80" as="geometry" />
        </mxCell>
        <mxCell id="-z4j6azdkSDf-nEMbMTn-38" style="edgeStyle=orthogonalEdgeStyle;rounded=0;orthogonalLoop=1;jettySize=auto;html=1;" edge="1" parent="-z4j6azdkSDf-nEMbMTn-65" source="-z4j6azdkSDf-nEMbMTn-29" target="-z4j6azdkSDf-nEMbMTn-40">
          <mxGeometry relative="1" as="geometry">
            <mxPoint x="190" y="300" as="targetPoint" />
          </mxGeometry>
        </mxCell>
        <mxCell id="-z4j6azdkSDf-nEMbMTn-53" value="크롤러로 id 전달" style="rounded=0;whiteSpace=wrap;html=1;" vertex="1" parent="-z4j6azdkSDf-nEMbMTn-65">
          <mxGeometry x="105" y="430" width="170" height="60" as="geometry" />
        </mxCell>
        <mxCell id="-z4j6azdkSDf-nEMbMTn-52" style="edgeStyle=orthogonalEdgeStyle;rounded=0;orthogonalLoop=1;jettySize=auto;html=1;" edge="1" parent="-z4j6azdkSDf-nEMbMTn-65" source="-z4j6azdkSDf-nEMbMTn-40" target="-z4j6azdkSDf-nEMbMTn-53">
          <mxGeometry relative="1" as="geometry">
            <mxPoint x="190" y="440" as="targetPoint" />
          </mxGeometry>
        </mxCell>
        <mxCell id="-z4j6azdkSDf-nEMbMTn-54" value="NO" style="edgeLabel;html=1;align=center;verticalAlign=middle;resizable=0;points=[];" vertex="1" connectable="0" parent="-z4j6azdkSDf-nEMbMTn-52">
          <mxGeometry x="-0.1329" relative="1" as="geometry">
            <mxPoint as="offset" />
          </mxGeometry>
        </mxCell>
        <mxCell id="-z4j6azdkSDf-nEMbMTn-56" value="크롤러" style="shape=process;whiteSpace=wrap;html=1;backgroundOutline=1;" vertex="1" parent="-z4j6azdkSDf-nEMbMTn-65">
          <mxGeometry x="105" y="560" width="170" height="60" as="geometry" />
        </mxCell>
        <mxCell id="-z4j6azdkSDf-nEMbMTn-55" style="edgeStyle=orthogonalEdgeStyle;rounded=0;orthogonalLoop=1;jettySize=auto;html=1;" edge="1" parent="-z4j6azdkSDf-nEMbMTn-65" source="-z4j6azdkSDf-nEMbMTn-53" target="-z4j6azdkSDf-nEMbMTn-56">
          <mxGeometry relative="1" as="geometry">
            <mxPoint x="190" y="550" as="targetPoint" />
          </mxGeometry>
        </mxCell>
        <mxCell id="-z4j6azdkSDf-nEMbMTn-88" style="edgeStyle=orthogonalEdgeStyle;rounded=0;orthogonalLoop=1;jettySize=auto;html=1;entryX=0.5;entryY=0;entryDx=0;entryDy=0;" edge="1" parent="-z4j6azdkSDf-nEMbMTn-65" source="-z4j6azdkSDf-nEMbMTn-56" target="-z4j6azdkSDf-nEMbMTn-71">
          <mxGeometry relative="1" as="geometry">
            <mxPoint x="190" y="665" as="targetPoint" />
          </mxGeometry>
        </mxCell>
        <mxCell id="-z4j6azdkSDf-nEMbMTn-42" value="크롤러 " style="swimlane;" vertex="1" parent="-z4j6azdkSDf-nEMbMTn-65">
          <mxGeometry x="560" y="90" width="270" height="815" as="geometry" />
        </mxCell>
        <mxCell id="-z4j6azdkSDf-nEMbMTn-43" value="store id" style="rounded=0;whiteSpace=wrap;html=1;" vertex="1" parent="-z4j6azdkSDf-nEMbMTn-42">
          <mxGeometry x="35" y="50" width="180" height="60" as="geometry" />
        </mxCell>
        <mxCell id="-z4j6azdkSDf-nEMbMTn-44" value="&amp;nbsp;url 결합" style="rounded=0;whiteSpace=wrap;html=1;" vertex="1" parent="-z4j6azdkSDf-nEMbMTn-42">
          <mxGeometry x="35" y="165" width="180" height="60" as="geometry" />
        </mxCell>
        <mxCell id="-z4j6azdkSDf-nEMbMTn-45" style="edgeStyle=orthogonalEdgeStyle;rounded=0;orthogonalLoop=1;jettySize=auto;html=1;" edge="1" parent="-z4j6azdkSDf-nEMbMTn-42" source="-z4j6azdkSDf-nEMbMTn-43" target="-z4j6azdkSDf-nEMbMTn-44">
          <mxGeometry relative="1" as="geometry">
            <mxPoint x="125" y="175" as="targetPoint" />
          </mxGeometry>
        </mxCell>
        <mxCell id="-z4j6azdkSDf-nEMbMTn-58" value="해당 스토어 리뷰 목록 클릭" style="rounded=0;whiteSpace=wrap;html=1;" vertex="1" parent="-z4j6azdkSDf-nEMbMTn-42">
          <mxGeometry x="40" y="515" width="170" height="60" as="geometry" />
        </mxCell>
        <mxCell id="-z4j6azdkSDf-nEMbMTn-107" style="edgeStyle=orthogonalEdgeStyle;rounded=0;orthogonalLoop=1;jettySize=auto;html=1;entryX=0.5;entryY=0;entryDx=0;entryDy=0;" edge="1" parent="-z4j6azdkSDf-nEMbMTn-42" source="-z4j6azdkSDf-nEMbMTn-60" target="-z4j6azdkSDf-nEMbMTn-104">
          <mxGeometry relative="1" as="geometry" />
        </mxCell>
        <mxCell id="-z4j6azdkSDf-nEMbMTn-60" value="목록 모달창의 리뷰 내용 수집" style="rounded=0;whiteSpace=wrap;html=1;" vertex="1" parent="-z4j6azdkSDf-nEMbMTn-42">
          <mxGeometry x="40" y="629" width="170" height="60" as="geometry" />
        </mxCell>
        <mxCell id="-z4j6azdkSDf-nEMbMTn-59" style="edgeStyle=orthogonalEdgeStyle;rounded=0;orthogonalLoop=1;jettySize=auto;html=1;" edge="1" parent="-z4j6azdkSDf-nEMbMTn-42" source="-z4j6azdkSDf-nEMbMTn-58" target="-z4j6azdkSDf-nEMbMTn-60">
          <mxGeometry relative="1" as="geometry">
            <mxPoint x="125" y="519" as="targetPoint" />
          </mxGeometry>
        </mxCell>
        <mxCell id="-z4j6azdkSDf-nEMbMTn-62" value="&lt;p class=&quot;p1&quot;&gt;&lt;b&gt;&lt;span class=&quot;Apple-converted-space&quot;&gt;&amp;nbsp;&lt;/span&gt;Puppeteer&amp;nbsp;&lt;/b&gt;&lt;/p&gt;&lt;p class=&quot;p1&quot;&gt;&lt;b&gt;브라우저 접속&lt;/b&gt;&lt;/p&gt;" style="rounded=0;whiteSpace=wrap;html=1;" vertex="1" parent="-z4j6azdkSDf-nEMbMTn-42">
          <mxGeometry x="40" y="290" width="170" height="60" as="geometry" />
        </mxCell>
        <mxCell id="-z4j6azdkSDf-nEMbMTn-61" style="edgeStyle=orthogonalEdgeStyle;rounded=0;orthogonalLoop=1;jettySize=auto;html=1;" edge="1" parent="-z4j6azdkSDf-nEMbMTn-42" source="-z4j6azdkSDf-nEMbMTn-44" target="-z4j6azdkSDf-nEMbMTn-62">
          <mxGeometry relative="1" as="geometry">
            <mxPoint x="125" y="260" as="targetPoint" />
          </mxGeometry>
        </mxCell>
        <mxCell id="-z4j6azdkSDf-nEMbMTn-103" style="edgeStyle=orthogonalEdgeStyle;rounded=0;orthogonalLoop=1;jettySize=auto;html=1;entryX=0.5;entryY=0;entryDx=0;entryDy=0;" edge="1" parent="-z4j6azdkSDf-nEMbMTn-42" source="-z4j6azdkSDf-nEMbMTn-102" target="-z4j6azdkSDf-nEMbMTn-58">
          <mxGeometry relative="1" as="geometry" />
        </mxCell>
        <mxCell id="-z4j6azdkSDf-nEMbMTn-102" value="게임 이름수집" style="rounded=0;whiteSpace=wrap;html=1;" vertex="1" parent="-z4j6azdkSDf-nEMbMTn-42">
          <mxGeometry x="40" y="395" width="170" height="60" as="geometry" />
        </mxCell>
        <mxCell id="-z4j6azdkSDf-nEMbMTn-101" style="edgeStyle=orthogonalEdgeStyle;rounded=0;orthogonalLoop=1;jettySize=auto;html=1;" edge="1" parent="-z4j6azdkSDf-nEMbMTn-42" source="-z4j6azdkSDf-nEMbMTn-62" target="-z4j6azdkSDf-nEMbMTn-102">
          <mxGeometry relative="1" as="geometry">
            <mxPoint x="125" y="415" as="targetPoint" />
          </mxGeometry>
        </mxCell>
        <mxCell id="-z4j6azdkSDf-nEMbMTn-104" value="게임이름&lt;div&gt;리뷰 내용 목록 반환&lt;/div&gt;" style="rounded=0;whiteSpace=wrap;html=1;" vertex="1" parent="-z4j6azdkSDf-nEMbMTn-42">
          <mxGeometry x="40" y="735" width="170" height="60" as="geometry" />
        </mxCell>
        <mxCell id="-z4j6azdkSDf-nEMbMTn-152" style="edgeStyle=orthogonalEdgeStyle;rounded=0;orthogonalLoop=1;jettySize=auto;html=1;" edge="1" parent="WIyWlLk6GJQsqaUBKTNV-1" source="-z4j6azdkSDf-nEMbMTn-117" target="-z4j6azdkSDf-nEMbMTn-153">
          <mxGeometry relative="1" as="geometry">
            <mxPoint x="5" y="380" as="targetPoint" />
          </mxGeometry>
        </mxCell>
        <mxCell id="-z4j6azdkSDf-nEMbMTn-117" value="2차 필터링" style="swimlane;" vertex="1" parent="WIyWlLk6GJQsqaUBKTNV-1">
          <mxGeometry x="-740" y="-550" width="1490" height="800" as="geometry" />
        </mxCell>
        <mxCell id="-z4j6azdkSDf-nEMbMTn-119" value="파일시스템 접근" style="rounded=0;whiteSpace=wrap;html=1;" vertex="1" parent="-z4j6azdkSDf-nEMbMTn-117">
          <mxGeometry x="515" y="195" width="190" height="60" as="geometry" />
        </mxCell>
        <mxCell id="-z4j6azdkSDf-nEMbMTn-121" value="저장된 해당 영상 AI모델 분석&lt;div&gt;(음성,영상요소,선정성)&lt;/div&gt;" style="rounded=0;whiteSpace=wrap;html=1;" vertex="1" parent="-z4j6azdkSDf-nEMbMTn-117">
          <mxGeometry x="515" y="325" width="190" height="60" as="geometry" />
        </mxCell>
        <mxCell id="-z4j6azdkSDf-nEMbMTn-120" style="edgeStyle=orthogonalEdgeStyle;rounded=0;orthogonalLoop=1;jettySize=auto;html=1;" edge="1" parent="-z4j6azdkSDf-nEMbMTn-117" source="-z4j6azdkSDf-nEMbMTn-119" target="-z4j6azdkSDf-nEMbMTn-121">
          <mxGeometry relative="1" as="geometry">
            <mxPoint x="610" y="325" as="targetPoint" />
          </mxGeometry>
        </mxCell>
        <mxCell id="-z4j6azdkSDf-nEMbMTn-125" value="광고 영상에 문제가 있는가?" style="rhombus;whiteSpace=wrap;html=1;" vertex="1" parent="-z4j6azdkSDf-nEMbMTn-117">
          <mxGeometry x="515" y="455" width="190" height="80" as="geometry" />
        </mxCell>
        <mxCell id="-z4j6azdkSDf-nEMbMTn-122" style="edgeStyle=orthogonalEdgeStyle;rounded=0;orthogonalLoop=1;jettySize=auto;html=1;" edge="1" parent="-z4j6azdkSDf-nEMbMTn-117" source="-z4j6azdkSDf-nEMbMTn-121" target="-z4j6azdkSDf-nEMbMTn-125">
          <mxGeometry relative="1" as="geometry">
            <mxPoint x="610" y="455" as="targetPoint" />
          </mxGeometry>
        </mxCell>
        <mxCell id="-z4j6azdkSDf-nEMbMTn-128" value="파일시스템 접근" style="rounded=0;whiteSpace=wrap;html=1;" vertex="1" parent="-z4j6azdkSDf-nEMbMTn-117">
          <mxGeometry x="815" y="465" width="160" height="60" as="geometry" />
        </mxCell>
        <mxCell id="-z4j6azdkSDf-nEMbMTn-126" style="edgeStyle=orthogonalEdgeStyle;rounded=0;orthogonalLoop=1;jettySize=auto;html=1;" edge="1" parent="-z4j6azdkSDf-nEMbMTn-117" source="-z4j6azdkSDf-nEMbMTn-125" target="-z4j6azdkSDf-nEMbMTn-128">
          <mxGeometry relative="1" as="geometry">
            <mxPoint x="825" y="495" as="targetPoint" />
          </mxGeometry>
        </mxCell>
        <mxCell id="-z4j6azdkSDf-nEMbMTn-127" value="NO" style="edgeLabel;html=1;align=center;verticalAlign=middle;resizable=0;points=[];" vertex="1" connectable="0" parent="-z4j6azdkSDf-nEMbMTn-126">
          <mxGeometry x="-0.0706" y="-3" relative="1" as="geometry">
            <mxPoint as="offset" />
          </mxGeometry>
        </mxCell>
        <mxCell id="-z4j6azdkSDf-nEMbMTn-132" value="저장된 영상 삭제" style="rounded=0;whiteSpace=wrap;html=1;" vertex="1" parent="-z4j6azdkSDf-nEMbMTn-117">
          <mxGeometry x="815" y="565" width="160" height="60" as="geometry" />
        </mxCell>
        <mxCell id="-z4j6azdkSDf-nEMbMTn-131" style="edgeStyle=orthogonalEdgeStyle;rounded=0;orthogonalLoop=1;jettySize=auto;html=1;" edge="1" parent="-z4j6azdkSDf-nEMbMTn-117" source="-z4j6azdkSDf-nEMbMTn-128" target="-z4j6azdkSDf-nEMbMTn-132">
          <mxGeometry relative="1" as="geometry">
            <mxPoint x="895" y="575" as="targetPoint" />
          </mxGeometry>
        </mxCell>
        <mxCell id="-z4j6azdkSDf-nEMbMTn-134" value="프로세스 종료 메세지 반환" style="rounded=0;whiteSpace=wrap;html=1;" vertex="1" parent="-z4j6azdkSDf-nEMbMTn-117">
          <mxGeometry x="815" y="665" width="160" height="60" as="geometry" />
        </mxCell>
        <mxCell id="-z4j6azdkSDf-nEMbMTn-133" style="edgeStyle=orthogonalEdgeStyle;rounded=0;orthogonalLoop=1;jettySize=auto;html=1;" edge="1" parent="-z4j6azdkSDf-nEMbMTn-117" source="-z4j6azdkSDf-nEMbMTn-132" target="-z4j6azdkSDf-nEMbMTn-134">
          <mxGeometry relative="1" as="geometry">
            <mxPoint x="895" y="675" as="targetPoint" />
          </mxGeometry>
        </mxCell>
        <mxCell id="-z4j6azdkSDf-nEMbMTn-136" style="edgeStyle=orthogonalEdgeStyle;rounded=0;orthogonalLoop=1;jettySize=auto;html=1;" edge="1" parent="-z4j6azdkSDf-nEMbMTn-117" source="-z4j6azdkSDf-nEMbMTn-135" target="-z4j6azdkSDf-nEMbMTn-119">
          <mxGeometry relative="1" as="geometry" />
        </mxCell>
        <mxCell id="-z4j6azdkSDf-nEMbMTn-135" value="1차 필터링 목록" style="rounded=0;whiteSpace=wrap;html=1;" vertex="1" parent="-z4j6azdkSDf-nEMbMTn-117">
          <mxGeometry x="515" y="75" width="190" height="60" as="geometry" />
        </mxCell>
        <mxCell id="-z4j6azdkSDf-nEMbMTn-137" value="서버에 게임이름, 영상파일이름&amp;nbsp;&lt;br&gt;DB 테이블에 저장요청" style="rounded=0;whiteSpace=wrap;html=1;" vertex="1" parent="-z4j6azdkSDf-nEMbMTn-117">
          <mxGeometry x="515" y="615" width="190" height="60" as="geometry" />
        </mxCell>
        <mxCell id="-z4j6azdkSDf-nEMbMTn-129" style="edgeStyle=orthogonalEdgeStyle;rounded=0;orthogonalLoop=1;jettySize=auto;html=1;" edge="1" parent="-z4j6azdkSDf-nEMbMTn-117" source="-z4j6azdkSDf-nEMbMTn-125" target="-z4j6azdkSDf-nEMbMTn-137">
          <mxGeometry relative="1" as="geometry">
            <mxPoint x="610" y="595" as="targetPoint" />
          </mxGeometry>
        </mxCell>
        <mxCell id="-z4j6azdkSDf-nEMbMTn-130" value="YES" style="edgeLabel;html=1;align=center;verticalAlign=middle;resizable=0;points=[];" vertex="1" connectable="0" parent="-z4j6azdkSDf-nEMbMTn-129">
          <mxGeometry x="-0.0481" relative="1" as="geometry">
            <mxPoint as="offset" />
          </mxGeometry>
        </mxCell>
        <mxCell id="-z4j6azdkSDf-nEMbMTn-146" value="작업성공 메세지 반환" style="rounded=0;whiteSpace=wrap;html=1;" vertex="1" parent="-z4j6azdkSDf-nEMbMTn-117">
          <mxGeometry x="510" y="710" width="200" height="60" as="geometry" />
        </mxCell>
        <mxCell id="-z4j6azdkSDf-nEMbMTn-145" style="edgeStyle=orthogonalEdgeStyle;rounded=0;orthogonalLoop=1;jettySize=auto;html=1;" edge="1" parent="-z4j6azdkSDf-nEMbMTn-117" source="-z4j6azdkSDf-nEMbMTn-137" target="-z4j6azdkSDf-nEMbMTn-146">
          <mxGeometry relative="1" as="geometry">
            <mxPoint x="610.0000000000005" y="720" as="targetPoint" />
          </mxGeometry>
        </mxCell>
        <mxCell id="-z4j6azdkSDf-nEMbMTn-139" style="edgeStyle=orthogonalEdgeStyle;rounded=0;orthogonalLoop=1;jettySize=auto;html=1;entryX=0.5;entryY=0;entryDx=0;entryDy=0;" edge="1" parent="WIyWlLk6GJQsqaUBKTNV-1" source="-z4j6azdkSDf-nEMbMTn-138" target="-z4j6azdkSDf-nEMbMTn-3">
          <mxGeometry relative="1" as="geometry" />
        </mxCell>
        <mxCell id="-z4j6azdkSDf-nEMbMTn-138" value="log stream" style="rounded=0;whiteSpace=wrap;html=1;" vertex="1" parent="WIyWlLk6GJQsqaUBKTNV-1">
          <mxGeometry x="-120" y="-2340" width="250" height="90" as="geometry" />
        </mxCell>
        <mxCell id="-z4j6azdkSDf-nEMbMTn-141" style="edgeStyle=orthogonalEdgeStyle;rounded=0;orthogonalLoop=1;jettySize=auto;html=1;entryX=0.5;entryY=0;entryDx=0;entryDy=0;" edge="1" parent="WIyWlLk6GJQsqaUBKTNV-1" source="-z4j6azdkSDf-nEMbMTn-140" target="-z4j6azdkSDf-nEMbMTn-138">
          <mxGeometry relative="1" as="geometry" />
        </mxCell>
        <mxCell id="-z4j6azdkSDf-nEMbMTn-140" value="게임 광고 실행" style="rounded=0;whiteSpace=wrap;html=1;" vertex="1" parent="WIyWlLk6GJQsqaUBKTNV-1">
          <mxGeometry x="-120" y="-2530" width="250" height="90" as="geometry" />
        </mxCell>
        <mxCell id="-z4j6azdkSDf-nEMbMTn-153" value="작업 완료" style="rounded=0;whiteSpace=wrap;html=1;" vertex="1" parent="WIyWlLk6GJQsqaUBKTNV-1">
          <mxGeometry x="-180" y="350" width="370" height="120" as="geometry" />
        </mxCell>
      </root>
    </mxGraphModel>
  </diagram>
</mxfile>
